HIERARCHY
ROOT Hips
{
  OFFSET -0.0683361 100.91 2.29056
  CHANNELS 6 Xposition Yposition Zposition Zrotation Xrotation Yrotation
  JOINT Spine
  {
    OFFSET 0 10.1816 0.1315
    CHANNELS 3 Zrotation Xrotation Yrotation
    JOINT Spine1
    {
      OFFSET 0 10.0835 -1.0008
      CHANNELS 3 Zrotation Xrotation Yrotation
      JOINT Spine2
      {
        OFFSET 0 9.1 -1.3734
        CHANNELS 3 Zrotation Xrotation Yrotation
        JOINT Neck
        {
          OFFSET 0 16.6717 -2.5162
          CHANNELS 3 Zrotation Xrotation Yrotation
          JOINT Head
          {
            OFFSET 0 9.6179 1.685
            CHANNELS 3 Zrotation Xrotation Yrotation
            End Site
            {
              OFFSET 0 0 0
            }
          }
        }
        JOINT LeftShoulder
        {
          OFFSET 4.5704 10.946 -2.628
          CHANNELS 3 Zrotation Xrotation Yrotation
          JOINT LeftArm
          {
            OFFSET 10.5924 -0.5246 -2.2321
            CHANNELS 3 Zrotation Xrotation Yrotation
            JOINT LeftForeArm
            {
              OFFSET 27.8415 -0.0001 0
              CHANNELS 3 Zrotation Xrotation Yrotation
              JOINT LeftHand
              {
                OFFSET 28.3288 0 0
                CHANNELS 3 Zrotation Xrotation Yrotation
                End Site
                {
                  OFFSET 0 0 0
                }
              }
            }
          }
        }
        JOINT RightShoulder
        {
          OFFSET -4.57 10.9462 -2.628
          CHANNELS 3 Zrotation Xrotation Yrotation
          JOINT RightArm
          {
            OFFSET -10.5928 -0.5248 -2.2321
            CHANNELS 3 Zrotation Xrotation Yrotation
            JOINT RightForeArm
            {
              OFFSET -27.8415 0 0
              CHANNELS 3 Zrotation Xrotation Yrotation
              JOINT RightHand
              {
                OFFSET -28.3288 0 0.0001
                CHANNELS 3 Zrotation Xrotation Yrotation
                End Site
                {
                  OFFSET 0 0 0
                }
              }
            }
          }
        }
      }
    }
  }
  JOINT LeftUpLeg
  {
    OFFSET 8.2078 -6.7517 -1.5996
    CHANNELS 3 Zrotation Xrotation Yrotation
    JOINT LeftLeg
    {
      OFFSET 0 -44.3705 0.2846
      CHANNELS 3 Zrotation Xrotation Yrotation
      JOINT LeftFoot
      {
        OFFSET 0 -44.4279 -2.9822
        CHANNELS 3 Zrotation Xrotation Yrotation
        JOINT LeftToeBase
        {
          OFFSET 0 -8.7287 10.7106
          CHANNELS 3 Zrotation Xrotation Yrotation
          End Site
          {
            OFFSET 0 0 0
          }
        }
      }
    }
  }
  JOINT RightUpLeg
  {
    OFFSET -8.2078 -6.7517 -1.5996
    CHANNELS 3 Zrotation Xrotation Yrotation
    JOINT RightLeg
    {
      OFFSET 0 -44.3705 0.2862
      CHANNELS 3 Zrotation Xrotation Yrotation
      JOINT RightFoot
      {
        OFFSET 0 -44.4277 -2.9838
        CHANNELS 3 Zrotation Xrotation Yrotation
        JOINT RightToeBase
        {
          OFFSET 0 -8.7287 10.7106
          CHANNELS 3 Zrotation Xrotation Yrotation
          End Site
          {
            OFFSET 0 0 0
          }
        }
      }
    }
  }
}
MOTION
Frames:	12
Frame Time:	0.0333333
-0.0683361 100.91 2.29056 -1.31018 -4.33143 1.13684 0.155731 5.04365 0.336562 0.000659741 1.97508 0.151505 0.00118519 1.97482 0.154919 0.217322 -0.193599 -2.18744 0.846833 -14.2993 -11.0592 -8.86362 13.0129 -7.90862 -48.8224 32.445 -19.5771 -0.000208371 8.36619e-06 -30.2327 -4.41412 -7.51114 15.8263 10.382 9.26223 -3.8787 46.4094 34.133 31.0461 1.40534e-05 3.33843e-06 18.3495 8.98689 0.188388 -9.97 10.2793 -7.07841 8.36624 -0.523287 25.9244 -6.88448 -5.12025 -13.9793 -0.254551 -8.85356e-07 -1.099e-05 8.51346e-07 -6.74449 -5.42549 -15.7854 -3.85449 23.4961 7.59444 7.51343 -12.7631 0.407364 1.05441e-06 -1.51399 -1.13274e-06 
-0.121834 100.898 2.47527 -1.29632 -4.18586 1.11956 0.149578 4.9922 0.356142 -0.00255097 1.95477 0.159566 -0.00201902 1.95448 0.163028 0.252191 -0.200466 -2.19431 0.903373 -14.1701 -11.056 -8.84013 12.9654 -7.89399 -49.3427 32.5145 -19.0349 -0.00019705 2.35329e-06 -30.2885 -4.38097 -7.60732 16.1286 10.3552 9.23058 -3.91006 46.2475 34.3122 30.7117 -1.52741e-05 -5.50548e-06 18.9596 9.18262 0.180736 -10.0218 10.2406 -7.08668 8.28765 -0.451151 25.8772 -6.81755 -5.21778 -14.0801 -0.265763 -3.0502e-06 -1.33928e-05 8.51362e-07 -6.65698 -5.4825 -15.6819 -3.96698 23.5126 7.55854 7.56492 -12.9001 0.425797 -2.70472e-06 -1.41099 3.08387e-06 
-0.170445 100.786 2.65403 -1.24525 -3.93735 1.07518 0.118397 4.97679 0.395139 -0.0144642 1.94855 0.175257 -0.0138847 1.94823 0.178812 0.312202 -0.247478 -2.20286 1.01605 -14.1063 -11.0383 -8.75069 12.7748 -7.81929 -49.8134 32.454 -18.5163 -0.000191291 -1.24343e-05 -30.7429 -4.23232 -7.39867 16.3596 10.2856 9.0949 -4.0991 45.9283 34.5171 30.2585 -1.9415e-05 -3.58666e-06 20.3926 9.56535 0.361423 -10.0961 10.2144 -7.41258 8.23519 -0.42505 26.2874 -6.75653 -5.26473 -14.4115 -0.280432 4.35804e-10 -1.76901e-05 2.97993e-06 -6.66862 -5.90795 -15.5403 -4.1342 24.0634 7.57901 7.62171 -13.3064 0.473046 -8.87603e-07 -1.18339 -1.40921e-06 
-0.209056 100.508 2.77746 -1.15691 -3.52022 1.02161 0.0581333 5.02288 0.440353 -0.0356938 1.96632 0.193011 -0.0350458 1.96596 0.196709 0.375536 -0.360513 -2.20764 1.17622 -14.1865 -11.0018 -8.58902 12.4227 -7.67005 -50.3478 32.1364 -17.888 -0.000203404 -4.73608e-06 -31.715 -3.95767 -6.88131 16.5753 10.1185 8.81186 -4.47864 45.5124 34.7006 29.6741 2.10164e-05 -3.06642e-06 22.7091 10.1044 0.807475 -10.1384 10.3056 -8.30088 8.34422 -0.562488 27.4622 -6.79448 -5.16024 -15.0781 -0.294004 1.04296e-06 -0.274767 1.60297e-06 -6.89097 -6.94133 -15.4268 -4.26027 25.4729 7.61207 7.63504 -14.0922 0.556132 2.25159e-06 -1.6593 5.41822e-07 
-0.238799 100.051 2.80746 -1.02618 -2.87711 0.939043 -0.0221426 5.19037 0.474743 -0.063731 2.03138 0.206113 -0.0630121 2.031 0.210011 0.378545 -0.572515 -2.19457 1.33133 -14.6385 -10.9409 -8.37835 11.9498 -7.44825 -51.0415 31.2731 -16.925 -0.00020332 -2.96662e-06 -33.4912 -3.55908 -6.14626 16.8216 9.72693 8.33106 -5.03651 45.2135 34.6839 28.9285 -1.21902e-05 -1.40117e-05 25.8253 10.5233 1.5078 -9.97745 10.554 -9.82477 8.67144 -0.927927 29.3832 -6.89006 -4.87776 -16.0276 -0.299843 8.47281e-07 -0.82195 -2.05933e-06 -7.41329 -8.65853 -15.4213 -4.21685 27.724 7.62662 7.55067 -15.1887 0.628624 -7.11058e-07 -2.35439 -2.90457e-07 
-0.267648 99.4452 2.73817 -0.830222 -1.96029 0.754024 -0.110066 5.50991 0.52703 -0.0918792 2.15626 0.226466 -0.0910415 2.15585 0.230656 0.269028 -0.853653 -2.15672 1.40078 -15.6354 -10.8694 -8.20373 11.5405 -7.23025 -51.637 29.7789 -15.5614 -0.000200777 1.5037e-06 -36.3223 -3.12022 -5.54355 17.0059 9.0318 7.72882 -5.57104 45.2905 34.2066 27.955 1.13535e-05 9.56477e-07 29.2361 10.2977 1.95002 -9.49792 10.8517 -11.9105 9.10019 -1.42162 31.7856 -6.82472 -4.54152 -17.1285 -0.303513 1.29869e-06 -1.42487 -2.46637e-07 -8.21913 -11.016 -15.5226 -4.01386 30.5497 7.58316 7.39025 -16.4295 0.699133 -1.86575e-06 -3.05751 -9.63583e-07 
-0.299625 98.7286 2.5777 -0.593711 -0.695129 0.377586 -0.201712 5.96787 0.663277 -0.119368 2.33649 0.28181 -0.118247 2.33598 0.286567 0.0889607 -1.20571 -2.11022 1.37968 -17.1351 -10.814 -8.07521 11.2269 -7.04405 -51.9586 27.8428 -13.8764 -0.000195938 -1.24299e-05 -40.1742 -2.67276 -5.26836 17.0333 8.15407 7.13388 -5.94509 45.6107 33.1551 26.6832 -2.04909e-05 -9.57421e-06 32.769 9.38931 1.62645 -8.95493 11.0861 -14.5187 9.46027 -1.85356 34.4288 -6.37535 -4.34513 -18.2923 -0.335072 -8.5626e-07 -1.99313 7.39512e-07 -9.10168 -13.9873 -15.5723 -3.83533 33.6245 7.49853 7.24648 -17.6633 0.768266 -1.7015e-06 -3.63545 1.4469e-06 
-0.333866 97.9128 2.32258 -0.39513 1.00509 -0.257773 -0.287019 6.55582 0.922779 -0.147161 2.56879 0.389599 -0.145478 2.56799 0.395489 -0.0864345 -1.69052 -2.0742 1.28638 -19.0918 -10.7852 -7.94352 10.9117 -6.85029 -52.0775 25.6728 -12.008 -0.000218671 3.80441e-06 -44.6274 -2.19378 -5.28218 16.8235 7.34354 6.68232 -6.10565 45.7898 31.5222 25.2018 -5.54458e-06 7.78241e-06 36.329 8.16231 0.402807 -8.6937 11.3087 -17.7175 9.73212 -2.12068 37.2606 -5.49913 -4.39587 -19.5042 -0.423162 -6.8107e-08 -2.42811 4.26165e-07 -9.77321 -17.6349 -15.3236 -3.85791 36.8086 7.38251 7.20363 -18.9838 0.852769 -2.12971e-06 -4.01792 2.27966e-06 
-0.36978 96.9986 1.96311 -0.26636 3.19227 -1.13309 -0.353991 7.26818 1.27481 -0.172449 2.85015 0.537831 -0.16992 2.84881 0.54561 -0.208951 -2.39083 -2.05002 1.16257 -21.4871 -10.7399 -7.75872 10.4799 -6.57336 -52.1419 23.4316 -10.1504 -0.000209731 -1.61277e-06 -49.0344 -1.59001 -5.40442 16.2198 6.80627 6.44767 -6.07583 45.4435 29.4408 23.7832 -6.20552e-06 6.49464e-06 39.7124 7.10209 -1.52504 -8.71139 11.6859 -21.5465 10.0651 -2.30463 40.2556 -4.32901 -4.6446 -20.7266 -0.551681 -1.55186e-06 -2.7009 -7.32531e-07 -10.0725 -21.9791 -14.6692 -4.12704 39.9897 7.23923 7.28615 -20.2568 0.950484 2.32206e-07 -4.22985 6.10007e-06 
-0.394568 96.0013 1.50409 -0.178582 5.90134 -2.09634 -0.362371 8.07599 1.61235 -0.178949 3.16811 0.682275 -0.175452 3.16607 0.692521 -0.31168 -3.35499 -2.01343 1.05786 -24.2405 -10.5847 -7.53217 9.92452 -6.16594 -52.2125 21.229 -8.52575 -0.000197905 -2.98951e-06 -52.7281 -0.762545 -5.55216 15.0114 6.55081 6.38911 -5.93863 44.4749 27.1431 22.7341 -4.64379e-07 8.946e-06 42.4376 6.42853 -4.01312 -8.5087 12.3621 -25.9992 10.6436 -2.54466 43.3144 -3.06111 -4.95729 -21.8735 -0.694836 -1.63202e-06 -2.84265 -7.92207e-07 -10.0829 -26.9471 -13.7615 -4.4954 43.0389 6.9928 7.46536 -21.2515 1.04537 -6.12094e-07 -4.35 -5.47743e-06 
-0.394824 94.9379 0.984167 -0.128643 9.18009 -2.91881 -0.255189 8.91509 1.81892 -0.143924 3.49589 0.774201 -0.139577 3.49322 0.786949 -0.482114 -4.55394 -1.94166 0.990424 -27.0921 -10.2612 -7.33198 9.36501 -5.67273 -52.2346 19.1624 -7.39312 -0.000213407 1.51809e-06 -55.1049 0.285614 -5.85618 13.1333 6.46924 6.40826 -5.80215 43.1125 24.8239 22.1452 -2.47947e-06 1.60703e-06 43.9157 5.87796 -6.92335 -7.6227 13.4556 -31.0831 11.6097 -2.89219 46.3364 -1.94828 -5.19889 -22.8822 -0.798517 -1.09886e-06 -2.88431 9.7348e-07 -10.0234 -32.4427 -12.8985 -4.6972 45.9047 6.43722 7.70413 -21.9982 1.13522 1.16247e-06 -4.45935 -2.53327e-06 
-0.370636 93.8069 0.488518 -0.114191 12.9948 -3.43543 -0.0428574 9.71757 1.86358 -0.0691061 3.80357 0.799604 -0.0640742 3.8005 0.814433 -0.772325 -5.87752 -1.85202 0.899444 -29.652 -9.87488 -7.25243 9.02236 -5.27566 -51.9676 17.3493 -7.04479 -0.000216378 1.97658e-05 -55.7896 1.47637 -6.70363 10.8547 6.52278 6.47806 -5.69307 41.7565 22.4979 21.8642 3.81292e-06 3.94877e-07 43.7593 4.65247 -9.74104 -6.19586 15.0153 -36.7096 13.0383 -3.33298 49.2748 -1.11368 -5.30346 -23.7684 -0.854444 1.15934e-06 -2.85332 -3.35965e-06 -10.1664 -38.3222 -12.3872 -4.53491 48.6127 5.4315 7.97015 -22.5589 1.21958 -1.06617e-06 -4.58996 -4.30748e-06 
